<svg version="1.1" xmlns="http://www.w3.org/2000/svg" viewBox="0 0 1033.3332824707027 1154.6666768391926" width="1033.3332824707027" height="1154.6666768391926">
  <!-- svg-source:excalidraw -->
  
  <defs>
    <style class="style-fonts">
      @font-face {
        font-family: "Virgil";
        src: url("https://excalidraw.com/Virgil.woff2");
      }
      @font-face {
        font-family: "Cascadia";
        src: url("https://excalidraw.com/Cascadia.woff2");
      }
      @font-face {
        font-family: "Assistant";
        src: url("https://excalidraw.com/Assistant-Regular.woff2");
      }
    </style>
    
  </defs>
  <rect x="0" y="0" width="1033.3332824707027" height="1154.6666768391926" fill="#ffffff"></rect><g stroke-linecap="round" transform="translate(202.75558439559325 24.666679170396407) rotate(0 358.00001525878906 544.0000076293945)"><path d="M32 0 C215.44 1.72, 398.9 2.45, 684 0 M32 0 C166.46 -0.04, 301.46 -0.2, 684 0 M684 0 C707.19 -0.52, 717.84 9.91, 716 32 M684 0 C704.28 -0.1, 717.63 10.7, 716 32 M716 32 C713.6 247.62, 712.69 463.74, 716 1056 M716 32 C713.75 429.13, 713.66 826.03, 716 1056 M716 1056 C715.06 1076.24, 703.57 1087.36, 684 1088 M716 1056 C715.26 1076.98, 707.27 1087.7, 684 1088 M684 1088 C484.6 1090.49, 286.33 1090.09, 32 1088 M684 1088 C544.19 1085.95, 404.84 1086.06, 32 1088 M32 1088 C11.24 1086.87, -0.25 1077.38, 0 1056 M32 1088 C9.27 1090.03, 1.22 1076.69, 0 1056 M0 1056 C-2.18 663.77, -1.83 271.53, 0 32 M0 1056 C0.15 656.98, 0.3 258.99, 0 32 M0 32 C0.3 12.28, 12.28 -0.8, 32 0 M0 32 C-0.58 9.63, 10.82 0.73, 32 0" stroke="#1e1e1e" stroke-width="2" fill="none"></path></g><g stroke-linecap="round" transform="translate(220.35552946395262 42.266700532701094) rotate(0 336.0000305175781 36)"><path d="M18 0 C253.38 1.53, 489 0.34, 654 0 M18 0 C206.45 1.07, 394.59 1.26, 654 0 M654 0 C664.06 1.73, 670.34 5.52, 672 18 M654 0 C667.3 -1.27, 672.25 3.99, 672 18 M672 18 C673.65 29.69, 673.63 42.71, 672 54 M672 18 C670.83 31.62, 671.4 44.6, 672 54 M672 54 C672.37 65.41, 666.2 72.59, 654 72 M672 54 C672.44 64.99, 667.46 73.78, 654 72 M654 72 C457 72.26, 259.68 71.4, 18 72 M654 72 C458.84 70.11, 263.07 70.37, 18 72 M18 72 C7.98 72.91, -1.27 66.28, 0 54 M18 72 C7.46 69.77, 1.38 65.18, 0 54 M0 54 C-1.17 44.95, 1.59 35.05, 0 18 M0 54 C0.04 42.63, -0.6 29, 0 18 M0 18 C1.48 4.23, 5.96 -1.9, 18 0 M0 18 C-1.35 3.92, 5.58 -1.93, 18 0" stroke="#1e1e1e" stroke-width="2" fill="none"></path></g><g stroke-linecap="round" transform="translate(497.15551725692137 51.066688325669844) rotate(0 62.399993896484375 26.800003051757812)"><path d="M13.4 0 C51.17 -0.13, 85.08 0.63, 111.4 0 M13.4 0 C47.02 -0.88, 79.85 -1.32, 111.4 0 M111.4 0 C120.62 -0.57, 123.71 3.77, 124.8 13.4 M111.4 0 C120.66 0.44, 124.05 4.68, 124.8 13.4 M124.8 13.4 C124.43 22.94, 124.7 33.47, 124.8 40.2 M124.8 13.4 C124.27 21.41, 124.64 29.56, 124.8 40.2 M124.8 40.2 C125.84 50.44, 118.48 55.52, 111.4 53.6 M124.8 40.2 C125.83 50.53, 121.81 51.69, 111.4 53.6 M111.4 53.6 C83.96 53.02, 55.94 52.52, 13.4 53.6 M111.4 53.6 C77.83 52.04, 45.01 52.32, 13.4 53.6 M13.4 53.6 C3.93 52.65, 1.44 49.57, 0 40.2 M13.4 53.6 C3.37 53.34, -2.28 49.36, 0 40.2 M0 40.2 C1.83 31.28, -1.64 24.12, 0 13.4 M0 40.2 C-0.14 34.71, -0.35 29.04, 0 13.4 M0 13.4 C1.83 6.21, 5.46 0.96, 13.4 0 M0 13.4 C-1.78 2.9, 4.89 -2.08, 13.4 0" stroke="#1e1e1e" stroke-width="2" fill="none"></path></g><g stroke-linecap="round"><g transform="translate(501.15551725692137 55.06670358445891) rotate(0 58.399993896484375 24.399993896484375)"><path d="M-1.03 0.54 C18.47 8.62, 98.24 40.6, 117.95 48.6 M0.62 -0.22 C19.99 8.03, 98.26 41.71, 117.6 50.03" stroke="#1e1e1e" stroke-width="2" fill="none"></path></g></g><mask></mask><g stroke-linecap="round"><g transform="translate(501.15551725692137 103.0667035844589) rotate(0 57.600006103515625 -23.20000457763672)"><path d="M-1.02 0.25 C18.48 -7.58, 96.74 -39.25, 116.17 -46.98 M0.64 -0.67 C20.14 -8.34, 96.67 -38.42, 115.73 -45.75" stroke="#1e1e1e" stroke-width="2" fill="none"></path></g></g><mask></mask><g stroke-linecap="round"><g transform="translate(260.3555294639526 75.86669137742766) rotate(0 44.399993896484375 0)"><path d="M-0.04 0.25 C14.97 0.2, 74.55 0.46, 89.17 0.28 M-1.52 -0.67 C13.44 -1.14, 73.17 -1.81, 88.41 -1.7" stroke="#1e1e1e" stroke-width="2" fill="none"></path></g></g><mask></mask><g stroke-linecap="round"><g transform="translate(378.7555538780151 76.66669442918547) rotate(0 47.199981689453125 -0.40000152587890625)"><path d="M-0.23 0.08 C15.62 0.28, 78.37 0.37, 94.3 0.04 M-1.81 -0.92 C13.94 -0.95, 77.15 -1.6, 93.3 -1.64" stroke="#1e1e1e" stroke-width="2" fill="none"></path></g></g><mask></mask><g stroke-linecap="round"><g transform="translate(649.9555050498901 75.0667035844589) rotate(0 41.600006103515625 0.7999954223632812)"><path d="M-0.74 0.91 C13.38 1.24, 70.13 0.52, 84.23 0.8 M1.08 0.35 C15.17 0.91, 70.09 1.84, 83.82 1.91" stroke="#1e1e1e" stroke-width="2" fill="none"></path></g></g><mask></mask><g stroke-linecap="round"><g transform="translate(763.5555416709839 75.0667035844589) rotate(0 50.79998779296875 0)"><path d="M0.63 -0.62 C17.41 -0.67, 84.99 0.11, 101.72 0.01 M-0.5 1.68 C16.05 1.8, 84.1 1.91, 100.84 1.56" stroke="#1e1e1e" stroke-width="2" fill="none"></path></g></g><mask></mask><g stroke-linecap="round" transform="translate(225.15551725692137 136.66669442918547) rotate(0 332.8000488281249 76)"><path d="M32 0 C205.39 1.61, 378.37 1.37, 633.6 0 M32 0 C218.59 -0.78, 405.51 -0.93, 633.6 0 M633.6 0 C655.42 1.46, 667.36 9.56, 665.6 32 M633.6 0 C655.7 1.64, 667 10.15, 665.6 32 M665.6 32 C664.68 54.83, 666.88 78.48, 665.6 120 M665.6 32 C665.8 62.72, 667.05 92.27, 665.6 120 M665.6 120 C665.88 142.69, 654.72 150.18, 633.6 152 M665.6 120 C667.8 143.03, 655.14 154.28, 633.6 152 M633.6 152 C455.61 152.08, 279.22 153.22, 32 152 M633.6 152 C449.94 152.05, 266.37 152.31, 32 152 M32 152 C9.81 152.57, 0.54 140.19, 0 120 M32 152 C10.05 153.15, 1.87 139.34, 0 120 M0 120 C0.84 99.44, 0.01 79.49, 0 32 M0 120 C-0.42 101.76, 0.02 84.59, 0 32 M0 32 C-1.81 11.77, 10.69 -1.96, 32 0 M0 32 C-0.25 12.54, 10.71 2.3, 32 0" stroke="#1e1e1e" stroke-width="2" fill="none"></path></g><g stroke-linecap="round"><g transform="translate(233.95550504989012 145.46671273973234) rotate(0 325.6000061035156 66)"><path d="M-0.32 -1.11 C108.4 21.19, 542.97 110.62, 651.66 132.89 M1.71 0.93 C110.37 22.98, 542.68 109.65, 650.95 131.24" stroke="#1e1e1e" stroke-width="2" fill="none"></path></g></g><mask></mask><g stroke-linecap="round"><g transform="translate(233.95550504989012 280.66669442918544) rotate(0 325.2000427246094 -66.39999389648438)"><path d="M-1.07 -0.84 C107.04 -22.87, 540.98 -110.07, 649.61 -131.96 M0.57 1.34 C108.97 -21.04, 543.64 -111.06, 651.91 -133.65" stroke="#1e1e1e" stroke-width="2" fill="none"></path></g></g><mask></mask><g stroke-linecap="round"><g transform="translate(399.55554167098387 328.8000531938337) rotate(0 161.5999755859375 -0.4000091552734375)"><path d="M-1.19 -0.29 C52.79 -0.33, 269.21 -1.02, 323.46 -1.2 M0.38 -1.49 C54.27 -1.28, 268.69 -0.06, 322.64 0.12" stroke="#1e1e1e" stroke-width="2" fill="none"></path></g></g><mask></mask><g stroke-linecap="round" transform="translate(240.35552946395262 358.40001352098216) rotate(0 149.20001220703125 73.60003662109372)"><path d="M32 0 C80.06 -0.85, 127.79 -0.14, 266.4 0 M32 0 C108.91 -0.15, 186.13 0.36, 266.4 0 M266.4 0 C287.06 -0.02, 300.34 10.89, 298.4 32 M266.4 0 C288.31 -1.42, 299.98 12.08, 298.4 32 M298.4 32 C296.48 55.01, 297 73.51, 298.4 115.2 M298.4 32 C297.13 51.27, 297.51 70.77, 298.4 115.2 M298.4 115.2 C298.05 135.28, 288.14 146.13, 266.4 147.2 M298.4 115.2 C299.52 135.48, 289.34 147.03, 266.4 147.2 M266.4 147.2 C195.36 146.2, 122.54 145.03, 32 147.2 M266.4 147.2 C207.22 147.97, 150.31 148.01, 32 147.2 M32 147.2 C9.51 145.93, 1.28 137.32, 0 115.2 M32 147.2 C12.23 148.81, 1.75 134.92, 0 115.2 M0 115.2 C0.11 94.33, -1.64 77.31, 0 32 M0 115.2 C-1.44 88.58, -1.15 59.39, 0 32 M0 32 C-1.95 12.48, 9.94 -0.94, 32 0 M0 32 C-0.54 12.78, 8.72 2.09, 32 0" stroke="#1e1e1e" stroke-width="2" fill="none"></path></g><g stroke-linecap="round"><g transform="translate(596.3555294639526 367.20003183152903) rotate(0 124.00003051757812 -2.4000091552734375)"><path d="M0.81 -0.07 C41.98 -0.75, 206.95 -3.83, 248.04 -4.68 M-0.22 -1.15 C40.7 -1.57, 206.04 -2.6, 247.11 -3.08" stroke="#1e1e1e" stroke-width="2" fill="none"></path></g></g><mask></mask><g stroke-linecap="round"><g transform="translate(601.1555172569214 397.6000257280134) rotate(0 122 -2)"><path d="M0.1 0.03 C40.41 -0.85, 202.48 -3.4, 243.03 -4.25 M-1.31 -1 C39.26 -1.18, 204.63 -2.29, 245.24 -2.84" stroke="#1e1e1e" stroke-width="2" fill="none"></path></g></g><mask></mask><g stroke-linecap="round"><g transform="translate(600.3555294639526 428.0000196244978) rotate(0 122.39999389648438 -1.5999908447265625)"><path d="M0.4 -0.9 C41.27 -1.65, 204.42 -3.75, 245.29 -4.11 M-0.85 1.25 C39.9 0.58, 203.57 -2.56, 244.59 -3.05" stroke="#1e1e1e" stroke-width="2" fill="none"></path></g></g><mask></mask><g stroke-linecap="round"><g transform="translate(600.3555294639526 459.2000013139509) rotate(0 122.39999389648438 -1.5999908447265625)"><path d="M0.36 0.43 C41.03 -0.14, 204.49 -2.94, 245.03 -3.68 M-0.91 -0.39 C39.54 -0.77, 203.08 -1.94, 244.21 -2.39" stroke="#1e1e1e" stroke-width="2" fill="none"></path></g></g><mask></mask><g stroke-linecap="round"><g transform="translate(601.9555050498901 488.0000196244978) rotate(0 122.39999389648438 -1.5999908447265625)"><path d="M1.1 1.02 C41.71 0.42, 202.97 -2.38, 243.66 -2.89 M0.22 0.51 C41.19 -0.53, 205.03 -4.13, 245.77 -4.84" stroke="#1e1e1e" stroke-width="2" fill="none"></path></g></g><mask></mask><g stroke-linecap="round"><g transform="translate(251.55554167098387 367.20003183152903) rotate(0 136.39999389648438 65.59999084472653)"><path d="M-0.61 0.04 C44.99 21.81, 227.54 109.57, 272.94 131.31 M1.26 -0.99 C46.78 20.94, 226.58 110.84, 272.06 132.91" stroke="#1e1e1e" stroke-width="2" fill="none"></path></g></g><mask></mask><g stroke-linecap="round"><g transform="translate(533.1555172569214 358.40001352098216) rotate(0 -142.39999389648438 67.99999999999997)"><path d="M-1.14 -1.17 C-48.39 21.66, -236.59 113.2, -283.78 136.11 M0.46 0.82 C-46.84 23.95, -236.65 114.89, -284.19 137.7" stroke="#1e1e1e" stroke-width="2" fill="none"></path></g></g><mask></mask><g stroke-linecap="round" transform="translate(249.15557829207762 604.0000226762556) rotate(0 94.79998779296875 68)"><path d="M32 0 C58.17 0.19, 86.29 -2.98, 157.6 0 M32 0 C67.99 -1.13, 105.71 -0.28, 157.6 0 M157.6 0 C178.96 -0.49, 189.1 10.56, 189.6 32 M157.6 0 C177.57 -0.38, 189.26 9.05, 189.6 32 M189.6 32 C188.16 57.62, 189.85 82.63, 189.6 104 M189.6 32 C189.42 59.89, 189.87 86.89, 189.6 104 M189.6 104 C189.78 126.81, 177.17 134.31, 157.6 136 M189.6 104 C191.75 127.05, 177.42 136.73, 157.6 136 M157.6 136 C110.27 138.04, 67.71 135.03, 32 136 M157.6 136 C118.07 134.64, 78.91 134.79, 32 136 M32 136 C12.51 137.21, -1.11 124.6, 0 104 M32 136 C12.15 136.59, 1.4 126.13, 0 104 M0 104 C-2.18 75.61, -1.08 45.78, 0 32 M0 104 C-1.22 88.39, -0.13 73.69, 0 32 M0 32 C1.2 12.11, 12.58 1.23, 32 0 M0 32 C1.57 11.04, 11.77 -1.21, 32 0" stroke="#1e1e1e" stroke-width="2" fill="none"></path></g><g stroke-linecap="round"><g transform="translate(257.95556608504637 614.4000318315291) rotate(0 86 57.99999237060547)"><path d="M0.72 -0.27 C29.03 19.17, 142.22 96.45, 170.82 115.89 M-0.36 -1.45 C28.21 18.24, 144.22 98.08, 172.91 117.37" stroke="#1e1e1e" stroke-width="2" fill="none"></path></g></g><mask></mask><g stroke-linecap="round"><g transform="translate(256.3555294639526 729.6000287797713) rotate(0 87.60000610351562 -58.80000305175781)"><path d="M-1.18 -0.11 C27.95 -19.6, 146.24 -97.48, 175.53 -117.21 M0.4 -1.22 C29.34 -21.05, 145.91 -99.73, 174.76 -119.12" stroke="#1e1e1e" stroke-width="2" fill="none"></path></g></g><mask></mask><g stroke-linecap="round" transform="translate(461.95556608504637 604.8000104692244) rotate(0 94.79998779296875 68)"><path d="M32 0 C66.99 -0.72, 101.39 -2.21, 157.6 0 M32 0 C67.58 0.79, 104.4 0.39, 157.6 0 M157.6 0 C179.64 -0.36, 187.77 11.96, 189.6 32 M157.6 0 C181.2 -2.27, 188.17 9.1, 189.6 32 M189.6 32 C189.15 50.72, 189.68 70.84, 189.6 104 M189.6 32 C190.35 56.74, 188.52 82.35, 189.6 104 M189.6 104 C189.78 123.62, 179.87 136.33, 157.6 136 M189.6 104 C189.09 127.56, 177.72 137.56, 157.6 136 M157.6 136 C134.29 135.61, 106.43 136.73, 32 136 M157.6 136 C128.38 136.63, 100.47 135.45, 32 136 M32 136 C10.47 135.36, -1.32 123.92, 0 104 M32 136 C9.68 135.52, -1.16 123.49, 0 104 M0 104 C1.52 88.94, 0.35 74.69, 0 32 M0 104 C0.95 76.44, 0.95 49.85, 0 32 M0 32 C-0.6 9.45, 9.55 -1.7, 32 0 M0 32 C-0.71 11.8, 8.75 -1.18, 32 0" stroke="#1e1e1e" stroke-width="2" fill="none"></path></g><g stroke-linecap="round"><g transform="translate(470.7555538780151 615.2000196244978) rotate(0 86 57.99999237060547)"><path d="M0.29 1.07 C28.67 20.25, 142.78 96.69, 171.4 115.84 M-1.01 0.58 C27.66 19.9, 145.08 97.85, 173.8 117.29" stroke="#1e1e1e" stroke-width="2" fill="none"></path></g></g><mask></mask><g stroke-linecap="round"><g transform="translate(469.15551725692137 730.40001657274) rotate(0 87.60000610351562 -58.80000305175781)"><path d="M-0.6 -0.16 C28.56 -19.95, 146.02 -98.22, 175.24 -117.65 M1.29 -1.29 C30.26 -20.36, 145.58 -96.59, 174.31 -116.14" stroke="#1e1e1e" stroke-width="2" fill="none"></path></g></g><mask></mask><g stroke-linecap="round" transform="translate(665.1555172569214 598.40001657274) rotate(0 94.79998779296875 68)"><path d="M32 0 C59.96 1.02, 90.38 0.45, 157.6 0 M32 0 C67.72 -0.64, 105.35 -0.16, 157.6 0 M157.6 0 C179.94 -0.59, 187.86 10.67, 189.6 32 M157.6 0 C180.3 -0.93, 190.63 9.51, 189.6 32 M189.6 32 C187.69 55.64, 188.28 83.54, 189.6 104 M189.6 32 C190.03 58.32, 190.79 84.82, 189.6 104 M189.6 104 C187.78 123.7, 179.41 136.87, 157.6 136 M189.6 104 C190.54 126.32, 178.98 136.39, 157.6 136 M157.6 136 C121.14 134.95, 86.12 134.33, 32 136 M157.6 136 C116.55 136.66, 77.38 137.11, 32 136 M32 136 C10.53 134.14, 1.65 124.82, 0 104 M32 136 C8.95 134.22, -0.32 126.86, 0 104 M0 104 C1.85 78.94, -0.36 51.78, 0 32 M0 104 C1 76.09, 0.85 49.59, 0 32 M0 32 C1.08 11.39, 12.62 -1.34, 32 0 M0 32 C-0.98 11.86, 9.62 0.84, 32 0" stroke="#1e1e1e" stroke-width="2" fill="none"></path></g><g stroke-linecap="round"><g transform="translate(673.9555050498901 608.8000257280135) rotate(0 86 57.99999237060547)"><path d="M1.09 -0.07 C29.75 19.37, 144.29 96.58, 172.74 115.89 M0.2 -1.15 C28.7 18.55, 143.73 97.68, 172.18 117.37" stroke="#1e1e1e" stroke-width="2" fill="none"></path></g></g><mask></mask><g stroke-linecap="round"><g transform="translate(672.3554684287964 724.0000226762556) rotate(0 87.60000610351562 -58.80000305175781)"><path d="M0.74 -0.11 C29.72 -19.74, 146.05 -98.06, 174.97 -117.82 M-0.33 -1.21 C28.38 -20.65, 144.41 -96.95, 173.9 -116.39" stroke="#1e1e1e" stroke-width="2" fill="none"></path></g></g><mask></mask><g stroke-linecap="round" transform="translate(245.95556608504637 763.2000348832869) rotate(0 94.79998779296875 68)"><path d="M32 0 C75.27 -0.03, 117.46 0.34, 157.6 0 M32 0 C63.15 1.7, 95.87 1.12, 157.6 0 M157.6 0 C178.84 -0.25, 191.46 11.48, 189.6 32 M157.6 0 C179.83 0.25, 189.41 8.53, 189.6 32 M189.6 32 C190.46 57.52, 189.48 84.13, 189.6 104 M189.6 32 C188.9 57.43, 189.9 81.99, 189.6 104 M189.6 104 C189.33 127.2, 177.47 136.95, 157.6 136 M189.6 104 C189.07 123.59, 179.51 135.71, 157.6 136 M157.6 136 C130.24 135.56, 102.55 134.63, 32 136 M157.6 136 C115.61 135.48, 71.47 137.17, 32 136 M32 136 C11.78 134.46, 0.69 125.07, 0 104 M32 136 C12.92 137.36, 0.01 127.05, 0 104 M0 104 C0.08 84.9, 0.28 66.04, 0 32 M0 104 C-0.84 86.34, 0.23 67.36, 0 32 M0 32 C0.42 10.42, 10.35 0.33, 32 0 M0 32 C2.29 12.81, 11.16 -1.42, 32 0" stroke="#1e1e1e" stroke-width="2" fill="none"></path></g><g stroke-linecap="round"><g transform="translate(254.75555387801512 773.6000440385603) rotate(0 86 57.99999237060547)"><path d="M0.63 -0.37 C29.27 18.85, 144.37 96.21, 172.85 115.43 M-0.5 -1.61 C27.97 17.75, 143.85 97.12, 172.35 116.67" stroke="#1e1e1e" stroke-width="2" fill="none"></path></g></g><mask></mask><g stroke-linecap="round"><g transform="translate(253.15551725692137 888.8000409868025) rotate(0 87.60000610351562 -58.80000305175781)"><path d="M0.85 -0.57 C29.87 -20.28, 145.79 -99.25, 174.73 -118.63 M-0.16 1.75 C28.6 -17.81, 144 -97.54, 173.53 -117.64" stroke="#1e1e1e" stroke-width="2" fill="none"></path></g></g><mask></mask><g stroke-linecap="round" transform="translate(460.3555294639526 760.8000104692244) rotate(0 94.79998779296875 68)"><path d="M32 0 C64.4 0.4, 99.64 -0.57, 157.6 0 M32 0 C78.4 0.2, 124.89 1.17, 157.6 0 M157.6 0 C180.14 0.61, 189.53 10.57, 189.6 32 M157.6 0 C180.42 0.98, 189.57 9.39, 189.6 32 M189.6 32 C191.41 57.03, 188.35 82.04, 189.6 104 M189.6 32 C190.89 57.92, 190.71 83.58, 189.6 104 M189.6 104 C190.76 123.55, 176.95 136.97, 157.6 136 M189.6 104 C190.91 123.79, 176.82 134.26, 157.6 136 M157.6 136 C114.13 138.55, 71.19 136.61, 32 136 M157.6 136 C127.63 136.05, 95.48 137.22, 32 136 M32 136 C10.34 137.68, -1.55 124.03, 0 104 M32 136 C11.67 137.27, 0.21 123.26, 0 104 M0 104 C-1.33 77.67, 1.52 49.36, 0 32 M0 104 C-0.79 76.46, -1.11 46.4, 0 32 M0 32 C-1.01 10.84, 8.98 0.4, 32 0 M0 32 C2.22 11.9, 9.99 2.22, 32 0" stroke="#1e1e1e" stroke-width="2" fill="none"></path></g><g stroke-linecap="round"><g transform="translate(469.15551725692137 771.2000196244978) rotate(0 86 57.99999237060547)"><path d="M0.79 0.92 C29.35 20.45, 143.79 97.77, 172.21 116.83 M-0.25 0.35 C28.09 19.59, 142.97 95.83, 171.38 115.14" stroke="#1e1e1e" stroke-width="2" fill="none"></path></g></g><mask></mask><g stroke-linecap="round"><g transform="translate(467.5554806358276 886.40001657274) rotate(0 87.60000610351562 -58.80000305175781)"><path d="M0.21 0.83 C29.17 -19.04, 145.35 -98.47, 174.52 -118.32 M-1.13 0.22 C28.15 -19.59, 147.6 -97.58, 176.88 -117.16" stroke="#1e1e1e" stroke-width="2" fill="none"></path></g></g><mask></mask><g stroke-linecap="round" transform="translate(667.5555416709839 759.2000348832869) rotate(0 94.79998779296875 68)"><path d="M32 0 C57.74 0.24, 83.31 -0.43, 157.6 0 M32 0 C76.31 -0.49, 122.06 0.57, 157.6 0 M157.6 0 C177.38 -0.39, 188.6 10.23, 189.6 32 M157.6 0 C176.82 -2.02, 191.69 9.02, 189.6 32 M189.6 32 C190.57 54.72, 191.05 80.87, 189.6 104 M189.6 32 C188.62 48.1, 189.78 62.74, 189.6 104 M189.6 104 C191.33 124.45, 178.96 134.84, 157.6 136 M189.6 104 C188.1 125.62, 178.54 137.16, 157.6 136 M157.6 136 C114.88 134.22, 74.21 133.74, 32 136 M157.6 136 C126.88 135.67, 99.1 135.94, 32 136 M32 136 C10.95 136.82, -1.71 123.63, 0 104 M32 136 C8.78 136.1, 0.89 126.82, 0 104 M0 104 C-1.01 86.34, -0.01 71.32, 0 32 M0 104 C-0.27 81.44, 0.77 58.35, 0 32 M0 32 C1.33 10.27, 12.07 -1.04, 32 0 M0 32 C0.7 11.22, 12.82 1.59, 32 0" stroke="#1e1e1e" stroke-width="2" fill="none"></path></g><g stroke-linecap="round"><g transform="translate(676.3555294639526 769.6000440385603) rotate(0 86 57.99999237060547)"><path d="M-0.91 -0.79 C27.84 18.73, 142.84 96.73, 171.69 116.02 M0.81 1.42 C29.45 21.23, 142.13 98.51, 170.57 117.56" stroke="#1e1e1e" stroke-width="2" fill="none"></path></g></g><mask></mask><g stroke-linecap="round"><g transform="translate(674.7554928428589 884.8000409868025) rotate(0 87.60000610351562 -58.80000305175781)"><path d="M0.82 -1.05 C30.33 -20.83, 146.81 -98.29, 176.03 -117.56 M-0.2 1.02 C29.31 -18.05, 146.18 -96.09, 175.53 -116" stroke="#1e1e1e" stroke-width="2" fill="none"></path></g></g><mask></mask><g stroke-linecap="round" transform="translate(213.15548673934325 932.666769197252) rotate(0 345.59999084472656 84)"><path d="M32 0 C175.41 -1.48, 317.25 -1.7, 659.2 0 M32 0 C271.87 -1.09, 512.78 -0.55, 659.2 0 M659.2 0 C680 -1.07, 692.12 11.61, 691.2 32 M659.2 0 C680.97 1.27, 692.77 10.8, 691.2 32 M691.2 32 C689.55 55.36, 691.16 80.83, 691.2 136 M691.2 32 C691.2 63.11, 689.71 93.56, 691.2 136 M691.2 136 C693.03 155.78, 681.51 167.09, 659.2 168 M691.2 136 C692.51 159.45, 679.62 169.98, 659.2 168 M659.2 168 C486.88 168.17, 313.51 168.22, 32 168 M659.2 168 C417.02 168.89, 173.74 168.91, 32 168 M32 168 C9.76 168.43, -1.22 156.16, 0 136 M32 168 C9.53 166.42, 0.87 159.1, 0 136 M0 136 C0.1 110.97, -0.83 89.84, 0 32 M0 136 C-0.17 107.66, -0.04 80.93, 0 32 M0 32 C-0.41 10.41, 9.06 -0.8, 32 0 M0 32 C1.61 10.87, 8.72 1.56, 32 0" stroke="#1e1e1e" stroke-width="2" fill="none"></path></g><g stroke-linecap="round"><g transform="translate(439.55554167098387 935.0667630937364) rotate(0 0.79998779296875 82.80001831054688)"><path d="M0.93 0.81 C1.28 28.24, 1.93 138.1, 1.96 165.65 M-0.04 0.19 C0.19 28.35, 1.18 139.91, 1.2 167.21" stroke="#1e1e1e" stroke-width="2" fill="none"></path></g></g><mask></mask><g stroke-linecap="round"><g transform="translate(670.7554928428589 931.8667508867052) rotate(0 0.800018310546875 83.59999084472656)"><path d="M-0.28 -0.96 C-0.22 27.22, 1.35 140.27, 1.52 168.29 M1.78 1.15 C1.57 29.09, 0.3 138.86, 0.53 166.74" stroke="#1e1e1e" stroke-width="2" fill="none"></path></g></g><mask></mask><g stroke-linecap="round"><g transform="translate(253.15551725692137 986.2668058183458) rotate(0 74.39999389648438 0)"><path d="M0.85 -0.88 C25.86 -1.02, 124.68 -0.23, 149.21 -0.01 M-0.16 1.27 C24.81 1.27, 123.37 2.01, 148.48 1.52" stroke="#1e1e1e" stroke-width="2" fill="none"></path></g></g><mask></mask><g stroke-linecap="round" transform="translate(704.3555904991089 1014.8608419590955) rotate(0 18.800018310546875 19.302988033140764)"><path d="M16.9 0.04 C20.77 -0.56, 26.71 0.67, 30.14 3.14 C33.57 5.61, 36.59 10.76, 37.5 14.86 C38.41 18.97, 37.38 24.13, 35.6 27.76 C33.82 31.39, 30.38 35.01, 26.82 36.63 C23.26 38.25, 18.15 38.58, 14.23 37.48 C10.3 36.38, 5.62 33.43, 3.28 30.03 C0.94 26.63, -0.15 21.2, 0.21 17.06 C0.57 12.93, 2.56 8.03, 5.45 5.23 C8.35 2.43, 15.41 1.16, 17.59 0.28 C19.77 -0.59, 18.45 -0.32, 18.51 -0.01 M15.55 -0.03 C19.18 -0.9, 24.06 0.66, 27.58 2.8 C31.09 4.93, 35.19 8.94, 36.65 12.78 C38.11 16.61, 37.7 21.86, 36.32 25.79 C34.94 29.73, 31.73 34.36, 28.37 36.38 C25.01 38.4, 20.15 38.66, 16.17 37.92 C12.2 37.17, 7.1 34.92, 4.5 31.93 C1.91 28.94, 0.64 24.01, 0.6 19.98 C0.55 15.96, 1.83 11.14, 4.26 7.79 C6.68 4.44, 13.33 1.05, 15.15 -0.12 C16.97 -1.3, 15.11 0.25, 15.16 0.72" stroke="#1e1e1e" stroke-width="2" fill="none"></path></g><g stroke-linecap="round" transform="translate(768.3555904991089 1012.3429982726539) rotate(0 18.800018310546875 19.302988033140764)"><path d="M17.79 0.5 C21.45 -0.01, 26.5 1.08, 29.79 3.61 C33.07 6.13, 36.52 11.57, 37.51 15.66 C38.5 19.75, 37.69 24.51, 35.75 28.15 C33.8 31.79, 29.63 35.96, 25.84 37.49 C22.05 39.03, 16.9 38.66, 13.01 37.38 C9.12 36.1, 4.59 33.25, 2.5 29.81 C0.41 26.37, -0.11 20.82, 0.46 16.75 C1.02 12.68, 2.93 8.21, 5.9 5.41 C8.86 2.6, 16.01 0.78, 18.24 -0.06 C20.48 -0.9, 19.31 0.06, 19.29 0.38 M15 0.72 C18.53 -0.07, 24.12 0.47, 27.63 2.55 C31.14 4.63, 34.67 9.34, 36.07 13.22 C37.48 17.09, 37.31 21.95, 36.07 25.79 C34.83 29.62, 32.05 34.13, 28.62 36.23 C25.18 38.33, 19.54 39.27, 15.48 38.38 C11.41 37.5, 6.88 34.16, 4.2 30.92 C1.53 27.69, -0.58 22.97, -0.58 18.95 C-0.58 14.93, 1.41 9.81, 4.22 6.78 C7.03 3.76, 14.38 1.85, 16.27 0.82 C18.17 -0.22, 15.73 0.34, 15.58 0.59" stroke="#1e1e1e" stroke-width="2" fill="none"></path></g><g stroke-linecap="round" transform="translate(833.1556393272339 1013.182215470857) rotate(0 18.800018310546875 19.302988033140764)"><path d="M15.72 0.36 C19.45 -0.49, 24.45 1.06, 27.99 3.23 C31.54 5.39, 35.57 9.62, 37.01 13.37 C38.45 17.13, 38.2 22.01, 36.62 25.76 C35.04 29.5, 31.15 33.8, 27.53 35.84 C23.91 37.89, 18.86 38.86, 14.9 38.05 C10.95 37.24, 6.27 34.08, 3.79 30.97 C1.3 27.86, -0.19 23.41, -0.01 19.37 C0.16 15.34, 2.09 9.97, 4.86 6.77 C7.63 3.57, 14.68 1.21, 16.61 0.15 C18.55 -0.9, 16.44 0.08, 16.45 0.43 M21.55 0.36 C25.36 0.81, 30.32 4.09, 32.92 7.03 C35.51 9.97, 37.05 13.86, 37.13 17.99 C37.22 22.12, 35.93 28.42, 33.43 31.83 C30.92 35.23, 26.05 37.69, 22.12 38.43 C18.19 39.17, 13.21 38.22, 9.85 36.28 C6.49 34.35, 3.39 30.61, 1.98 26.81 C0.57 23.02, 0.24 17.46, 1.4 13.51 C2.55 9.56, 5.52 5.24, 8.93 3.1 C12.34 0.96, 19.67 1.13, 21.86 0.7 C24.05 0.26, 22.23 0.29, 22.07 0.48" stroke="#1e1e1e" stroke-width="2" fill="none"></path></g><g stroke-linecap="round"><g transform="translate(710.7556149131714 986.3258244396125) rotate(0 74.39999389648438 0)"><path d="M-0.34 0.57 C24.48 0.62, 124.5 0.73, 149.31 0.63 M1.69 -0.17 C26.36 -0.51, 124.31 -1.4, 148.62 -1.16" stroke="#1e1e1e" stroke-width="2" fill="none"></path></g></g><mask></mask><g stroke-linecap="round"><g transform="translate(255.55554167098387 1022.2667447831896) rotate(0 72 0)"><path d="M-0.1 -0.21 C23.95 -0.32, 119.59 -0.57, 143.66 -0.73 M-1.61 -1.37 C22.31 -1.33, 118.31 0.28, 142.53 0.43" stroke="#1e1e1e" stroke-width="2" fill="none"></path></g></g><mask></mask><g stroke-linecap="round"><g transform="translate(253.15557829207762 1056.666769197252) rotate(0 72 0)"><path d="M0.29 0.45 C24.19 0.55, 119.78 0.59, 143.78 0.46 M-1.01 -0.36 C22.67 -0.62, 118.6 -1.62, 142.72 -1.42" stroke="#1e1e1e" stroke-width="2" fill="none"></path></g></g><mask></mask><g stroke-linecap="round" transform="translate(507.5554806358276 976.666769197252) rotate(0 54.79998779296875 40.80000305175781)"><path d="M20.4 0 C49.04 0.36, 76.16 1.73, 89.2 0 M20.4 0 C35.61 0.04, 52.28 -0.48, 89.2 0 M89.2 0 C104.43 1.5, 108.39 6.35, 109.6 20.4 M89.2 0 C104.28 0.06, 108.29 6.93, 109.6 20.4 M109.6 20.4 C108.51 30.94, 111.02 39.25, 109.6 61.2 M109.6 20.4 C109.19 35.53, 108.94 51.04, 109.6 61.2 M109.6 61.2 C111.02 75.44, 101.17 80.26, 89.2 81.6 M109.6 61.2 C110.59 75.17, 103.15 83.73, 89.2 81.6 M89.2 81.6 C64.91 81.57, 43.85 82.4, 20.4 81.6 M89.2 81.6 C70.46 81.74, 54.55 81.76, 20.4 81.6 M20.4 81.6 C8.56 82.63, 0.78 73.04, 0 61.2 M20.4 81.6 C6.06 81.69, 1.01 75.47, 0 61.2 M0 61.2 C-0.43 52.2, -1.27 42.69, 0 20.4 M0 61.2 C0.55 48.39, -0.63 35.1, 0 20.4 M0 20.4 C0.49 4.94, 7.67 1.28, 20.4 0 M0 20.4 C0.08 8.4, 8.83 -1.15, 20.4 0" stroke="#1e1e1e" stroke-width="2" fill="none"></path></g><g stroke-linecap="round"><g transform="translate(510.75549284285887 982.2667447831896) rotate(0 51.20001220703125 34.40000915527344)"><path d="M0.27 1.19 C17.24 12.66, 84.91 57.41, 102.01 68.78 M-1.04 0.77 C15.71 12.45, 83.62 59.2, 100.85 70.3" stroke="#1e1e1e" stroke-width="2" fill="none"></path></g></g><mask></mask><g stroke-linecap="round"><g transform="translate(612.3555294639526 983.0667630937364) rotate(0 -48.79998779296875 35.20002746582031)"><path d="M-0.86 -1.19 C-16.92 10.59, -81.5 58.7, -97.5 70.71 M0.89 0.8 C-15.21 12.2, -82.04 57.42, -98.39 68.74" stroke="#1e1e1e" stroke-width="2" fill="none"></path></g></g><mask></mask><g stroke-linecap="round"><g transform="translate(393.9555050498901 571.200031831529) rotate(0 161.5999755859375 -0.4000091552734375)"><path d="M-0.13 0.65 C53.78 0.62, 268.67 -0.89, 322.51 -0.96 M-1.66 -0.05 C52.72 0.18, 270.92 0.75, 324.86 0.49" stroke="#1e1e1e" stroke-width="2" fill="none"></path></g></g><mask></mask><g stroke-linecap="round" transform="translate(147.33332316080725 10) rotate(0 432.000020345052 145.99999109903968)"><path d="M32 0 C349.53 0.93, 669.33 1.69, 832 0 M32 0 C334.35 3.16, 636.21 2.66, 832 0 M832 0 C853.55 0.71, 862.19 8.67, 864 32 M832 0 C853.92 -1.62, 862.31 10.12, 864 32 M864 32 C865.01 102.63, 863.77 174.85, 864 260 M864 32 C865.06 101.43, 865 169.97, 864 260 M864 260 C862.28 280.93, 854.83 293.38, 832 292 M864 260 C862.89 283.1, 854.03 293.49, 832 292 M832 292 C574.15 293.63, 315 293.47, 32 292 M832 292 C601.05 292.06, 369.54 292.29, 32 292 M32 292 C12.04 292.76, 1.67 282.96, 0 260 M32 292 C12.43 290.67, -0.35 282.71, 0 260 M0 260 C-1.34 198.86, -1.92 139.37, 0 32 M0 260 C1.03 204.41, 1.01 146.55, 0 32 M0 32 C1.84 11.58, 10.29 0.94, 32 0 M0 32 C-1.83 9.88, 11.3 -0.29, 32 0" stroke="#f08c00" stroke-width="2" fill="none"></path></g><g transform="translate(23.33333333333337 246.00002288818357) rotate(0 44.677391052246094 17.166646321614593)"><text x="0" y="24.060771484375024" font-family="Virgil, Segoe UI Emoji" font-size="27.466634114583357px" fill="#f08c00" text-anchor="start" style="white-space: pre;" direction="ltr" dominant-baseline="alphabetic">header</text></g><g stroke-linecap="round" transform="translate(118.0000305175779 907.3333028157549) rotate(0 452.66662597656244 118.66668701171886)"><path d="M32 0 C332.13 -1.27, 633.02 -1.27, 873.33 0 M32 0 C324.16 2.86, 616.02 3.02, 873.33 0 M873.33 0 C893.17 -1.38, 903.69 11.33, 905.33 32 M873.33 0 C895.81 1.97, 906.64 9.09, 905.33 32 M905.33 32 C906.01 71.45, 907.88 113.4, 905.33 205.33 M905.33 32 C904.17 76.21, 904.7 120.62, 905.33 205.33 M905.33 205.33 C905.12 226.03, 894.17 237.57, 873.33 237.33 M905.33 205.33 C904.49 227.78, 893.56 239.33, 873.33 237.33 M873.33 237.33 C624.71 237.16, 376.13 237.35, 32 237.33 M873.33 237.33 C626.21 237.49, 378.99 237.39, 32 237.33 M32 237.33 C8.7 238.86, -0.3 225.92, 0 205.33 M32 237.33 C12.5 236.15, -0.54 226.13, 0 205.33 M0 205.33 C-0.02 168.37, -1.12 129.58, 0 32 M0 205.33 C1.31 145.32, 1.02 83.97, 0 32 M0 32 C1.82 8.81, 10.67 -1.65, 32 0 M0 32 C-1.87 11.89, 9.82 -0.91, 32 0" stroke="#1971c2" stroke-width="2" fill="none"></path></g><g transform="translate(26.000010172526004 1103.3333638509112) rotate(0 31.359962463378906 12.5)"><text x="0" y="17.52" font-family="Virgil, Segoe UI Emoji" font-size="20px" fill="#1971c2" text-anchor="start" style="white-space: pre;" direction="ltr" dominant-baseline="alphabetic">footer</text></g><g stroke-linecap="round" transform="translate(152.66667683919263 308.66665395100904) rotate(0 403.99998982747394 296.6667238871256)"><path d="M32 0 C200.52 -1.68, 368.34 -1.32, 776 0 M32 0 C320.28 -1.58, 608.62 -1.27, 776 0 M776 0 C798.35 1.03, 808.09 8.85, 808 32 M776 0 C796.47 0.89, 808.16 9.94, 808 32 M808 32 C805.5 192.42, 805.69 353.79, 808 561.33 M808 32 C806.25 150.68, 806.05 268.37, 808 561.33 M808 561.33 C808.88 581.6, 798.84 592.66, 776 593.33 M808 561.33 C806.09 584.41, 797.41 595.01, 776 593.33 M776 593.33 C508.59 593.54, 239.79 593.54, 32 593.33 M776 593.33 C601.51 590.48, 427.69 590.96, 32 593.33 M32 593.33 C8.75 592.41, 0.38 584.66, 0 561.33 M32 593.33 C12.41 592.62, 0.71 581.73, 0 561.33 M0 561.33 C1.49 381.83, 0.99 203.22, 0 32 M0 561.33 C0.43 449.61, 0.77 337.71, 0 32 M0 32 C1.36 9.61, 9.45 -0.72, 32 0 M0 32 C1.52 10.58, 12.87 -0.64, 32 0" stroke="#e03131" stroke-width="2" fill="none"></path></g><g transform="translate(10 570.000030517578) rotate(0 49.510963439941406 31.166661580403627)"><text x="0" y="43.68319287109369" font-family="Virgil, Segoe UI Emoji" font-size="49.866658528645765px" fill="#e03131" text-anchor="start" style="white-space: pre;" direction="ltr" dominant-baseline="alphabetic">main</text></g><g transform="translate(720.8222120636119 207.5555390252009) rotate(0 78.48993682861334 12.5)"><text x="0" y="17.52" font-family="Virgil, Segoe UI Emoji" font-size="20px" fill="#2f9e44" text-anchor="start" style="white-space: pre;" direction="ltr" dominant-baseline="alphabetic">seccion -&gt; baner</text></g><g stroke-linecap="round" transform="translate(211.48888551196274 314.22220569186754) rotate(0 333.7777879503039 111.55556572808158)"><path d="M32 0 C158.56 -1.5, 283.96 -1.3, 635.56 0 M32 0 C153.47 -2.33, 274.71 -2.11, 635.56 0 M635.56 0 C658.03 -1.4, 666.33 9.33, 667.56 32 M635.56 0 C655.18 0.32, 665.98 12.51, 667.56 32 M667.56 32 C665.15 86.43, 666.17 138.48, 667.56 191.11 M667.56 32 C666.98 67.51, 667.34 103.56, 667.56 191.11 M667.56 191.11 C668.1 211.39, 655.48 223.54, 635.56 223.11 M667.56 191.11 C665.72 211.33, 656.68 222.88, 635.56 223.11 M635.56 223.11 C456.09 223.47, 275.87 223.42, 32 223.11 M635.56 223.11 C448.71 224.06, 261.96 223.9, 32 223.11 M32 223.11 C10.97 224.31, -0.61 213.57, 0 191.11 M32 223.11 C12.88 221.43, 0.78 212.43, 0 191.11 M0 191.11 C-3.23 144.21, -1.31 97.21, 0 32 M0 191.11 C-1.27 146.79, -0.77 103.13, 0 32 M0 32 C-0.69 12.09, 10.59 1.92, 32 0 M0 32 C0.92 12.9, 9.54 0.19, 32 0" stroke="#2f9e44" stroke-width="2" fill="none"></path></g><g stroke-linecap="round" transform="translate(218.37776759929767 551.5555636088054) rotate(0 329.77779812282984 174.66668023003467)"><path d="M32 0 C166.43 -1.83, 302.45 -1.26, 627.56 0 M32 0 C256.45 2.54, 480.83 2.28, 627.56 0 M627.56 0 C647.11 -1.54, 659.67 9.59, 659.56 32 M627.56 0 C647.19 0.28, 660.46 10.71, 659.56 32 M659.56 32 C661.94 101.6, 659.21 169.78, 659.56 317.33 M659.56 32 C657.79 99.9, 657.36 167.97, 659.56 317.33 M659.56 317.33 C659.36 338.5, 649.23 348.71, 627.56 349.33 M659.56 317.33 C660.15 340.83, 649.69 349.93, 627.56 349.33 M627.56 349.33 C401.43 349.51, 174.17 348.64, 32 349.33 M627.56 349.33 C426.13 349.04, 224.74 349.1, 32 349.33 M32 349.33 C9.78 348.37, -0.66 337.77, 0 317.33 M32 349.33 C8.95 349.63, 0.69 337.05, 0 317.33 M0 317.33 C0.9 206.51, 1.3 92.11, 0 32 M0 317.33 C0.05 214.82, 0.39 111.9, 0 32 M0 32 C-1.94 12.57, 11.9 1.79, 32 0 M0 32 C-0.34 8.39, 10.33 1.15, 32 0" stroke="#2f9e44" stroke-width="2" fill="none"></path></g><g stroke-linecap="round" transform="translate(698.419884885264 1001.2915498115549) rotate(0 89.89901174720808 25.777500046990667)"><path d="M12.89 0 C72.33 -1.79, 128.67 0.58, 166.91 0 M12.89 0 C51.33 0.05, 90.55 -1.02, 166.91 0 M166.91 0 C175.92 1.97, 180.69 5.88, 179.8 12.89 M166.91 0 C176.67 -0.77, 181.26 2.23, 179.8 12.89 M179.8 12.89 C179.58 19.06, 179.27 26.48, 179.8 38.67 M179.8 12.89 C179.39 23.03, 179.55 32.27, 179.8 38.67 M179.8 38.67 C181.31 47.56, 177.33 50.16, 166.91 51.56 M179.8 38.67 C179.25 49.06, 173.93 52.75, 166.91 51.56 M166.91 51.56 C133.19 52.04, 97.25 50.71, 12.89 51.56 M166.91 51.56 C135.74 52.42, 105.91 52.98, 12.89 51.56 M12.89 51.56 C4.48 49.77, 1.67 45.81, 0 38.67 M12.89 51.56 C2.31 52.54, 1.11 47.82, 0 38.67 M0 38.67 C0.19 32.16, 1.02 27.64, 0 12.89 M0 38.67 C1.1 31.8, 0.74 23.51, 0 12.89 M0 12.89 C0.91 3.5, 3.01 0.03, 12.89 0 M0 12.89 C-1.69 4.05, 6.18 -0.03, 12.89 0" stroke="#2f9e44" stroke-width="2" fill="none"></path></g><g transform="translate(259.43931487993495 46.32876709307439) rotate(0 11.439994812011719 12.5)"><text x="0" y="17.52" font-family="Virgil, Segoe UI Emoji" font-size="20px" fill="#e03131" text-anchor="start" style="white-space: pre;" direction="ltr" dominant-baseline="alphabetic">LI</text></g><g transform="translate(400.7303228563576 45.565058135589936) rotate(0 11.439994812011719 12.5)"><text x="0" y="17.52" font-family="Virgil, Segoe UI Emoji" font-size="20px" fill="#e03131" text-anchor="start" style="white-space: pre;" direction="ltr" dominant-baseline="alphabetic">LI</text></g><g transform="translate(500.7796195535557 64.65843759186328) rotate(0 11.439994812011719 12.5)"><text x="0" y="17.52" font-family="Virgil, Segoe UI Emoji" font-size="20px" fill="#e03131" text-anchor="start" style="white-space: pre;" direction="ltr" dominant-baseline="alphabetic">LI</text></g><g transform="translate(650.4717028370646 47.85627241059822) rotate(0 11.439994812011719 12.5)"><text x="0" y="17.52" font-family="Virgil, Segoe UI Emoji" font-size="20px" fill="#e03131" text-anchor="start" style="white-space: pre;" direction="ltr" dominant-baseline="alphabetic">LI</text></g><g transform="translate(786.4165878730784 47.85627241059822) rotate(0 11.439994812011719 12.5)"><text x="0" y="17.52" font-family="Virgil, Segoe UI Emoji" font-size="20px" fill="#e03131" text-anchor="start" style="white-space: pre;" direction="ltr" dominant-baseline="alphabetic">LI</text></g><g transform="translate(239.0168586486791 91.61111933390285) rotate(0 13.129997253417969 12.5)"><text x="0" y="17.52" font-family="Virgil, Segoe UI Emoji" font-size="20px" fill="#e03131" text-anchor="start" style="white-space: pre;" direction="ltr" dominant-baseline="alphabetic">UL</text></g></svg>